<?xml version="1.0" standalone="no"?>
<!DOCTYPE svg PUBLIC "-//W3C//DTD SVG 20010904//EN"
 "http://www.w3.org/TR/2001/REC-SVG-20010904/DTD/svg10.dtd">
<svg version="1.0" xmlns="http://www.w3.org/2000/svg"
 width="500.000000pt" height="500.000000pt" viewBox="0 0 500.000000 500.000000"
 preserveAspectRatio="xMidYMid meet">
<metadata>
Created by potrace 1.16, written by Peter Selinger 2001-2019
</metadata>
<g transform="translate(0.000000,500.000000) scale(0.100000,-0.100000)"
fill="#000000" stroke="none">
<path d="M1410 4861 c-90 -28 -171 -96 -217 -183 l-28 -53 0 -2125 0 -2125 28
-53 c35 -67 92 -124 159 -159 l53 -28 1095 0 1095 0 53 28 c67 35 124 92 159
159 l28 53 0 2125 0 2125 -28 53 c-15 29 -45 70 -67 92 -22 22 -63 52 -92 67
l-53 28 -1080 2 c-594 1 -1091 -2 -1105 -6z m2205 -61 c64 -31 124 -92 156
-155 l24 -50 0 -2095 0 -2095 -24 -50 c-32 -63 -92 -124 -156 -155 l-50 -25
-1065 0 -1065 0 -50 25 c-64 31 -124 92 -156 155 l-24 50 -3 2070 c-2 1465 1
2083 8 2115 15 62 70 142 122 178 94 65 27 61 1183 59 l1050 -2 50 -25z"/>
<path d="M1450 4801 c-84 -26 -168 -98 -211 -181 l-24 -45 0 -2080 0 -2080 24
-45 c32 -61 96 -126 156 -158 l50 -27 1055 0 1055 0 50 27 c60 32 124 97 156
158 l24 45 0 2080 0 2080 -24 45 c-32 61 -96 126 -156 158 l-50 27 -1040 2
c-572 1 -1051 -2 -1065 -6z m2084 -83 c55 -16 148 -109 164 -164 9 -31 12
-281 12 -1010 l0 -969 -1210 0 -1210 0 0 969 c0 729 3 979 12 1010 15 51 108
147 158 163 53 16 2018 17 2074 1z m176 -3220 l0 -997 -52 7 c-69 9 -2247 9
-2315 0 l-53 -7 0 997 0 997 1210 0 1210 0 0 -997z m-1275 -1066 c605 -1 1136
1 1180 6 44 5 82 8 83 6 2 -1 -4 -19 -13 -38 -23 -49 -104 -119 -153 -134 -56
-17 -2007 -17 -2063 0 -63 18 -145 98 -164 157 -6 21 -5 23 11 15 11 -5 493
-10 1119 -12z"/>
<path d="M3296 3354 c-12 -31 -7 -299 6 -312 16 -16 190 -16 206 0 7 7 12 28
12 48 0 49 -15 60 -82 60 l-58 0 0 50 0 50 64 0 c69 0 76 5 76 60 0 58 -3 60
-115 60 -85 0 -104 -3 -109 -16z"/>
<path d="M3296 2094 c-12 -31 -7 -299 6 -312 16 -16 190 -16 206 0 7 7 12 28
12 48 0 49 -15 60 -82 60 l-58 0 0 50 0 50 64 0 c69 0 76 5 76 60 0 58 -3 60
-115 60 -85 0 -104 -3 -109 -16z"/>
</g>
</svg>
