<?xml version="1.0" standalone="no"?>
<!DOCTYPE svg PUBLIC "-//W3C//DTD SVG 20010904//EN"
 "http://www.w3.org/TR/2001/REC-SVG-20010904/DTD/svg10.dtd">
<svg version="1.0" xmlns="http://www.w3.org/2000/svg"
 width="500.000000pt" height="500.000000pt" viewBox="0 0 500.000000 500.000000"
 preserveAspectRatio="xMidYMid meet">
<metadata>
Created by potrace 1.16, written by Peter Selinger 2001-2019
</metadata>
<g transform="translate(0.000000,500.000000) scale(0.100000,-0.100000)"
fill="#000000" stroke="none">
<path d="M2420 4940 c0 -5 8 -17 19 -27 20 -19 55 -91 66 -136 4 -15 11 -27
15 -27 4 0 13 -27 20 -60 16 -75 9 -242 -12 -290 -9 -19 -27 -63 -41 -97 -14
-34 -42 -84 -61 -112 -20 -28 -36 -54 -36 -59 0 -18 -219 -231 -280 -272 -19
-13 -38 -28 -41 -33 -3 -5 -8 23 -11 61 -8 112 -60 200 -164 278 -22 16 -48
37 -58 46 -11 10 -43 27 -73 40 -29 12 -53 25 -53 28 0 10 -119 44 -127 36 -9
-8 26 -76 39 -76 5 0 6 -4 3 -10 -3 -5 -2 -10 4 -10 5 0 15 -31 22 -70 10 -55
10 -88 0 -157 -7 -48 -16 -90 -20 -93 -4 -3 -20 -44 -34 -92 -15 -48 -33 -93
-40 -100 -7 -7 -23 -38 -36 -68 -13 -30 -31 -64 -40 -75 -10 -11 -30 -49 -46
-85 -15 -36 -31 -67 -35 -70 -17 -12 -40 -143 -40 -226 0 -98 17 -164 57 -223
l24 -35 -73 -71 c-40 -39 -87 -89 -105 -111 -95 -116 -114 -141 -128 -171 -9
-18 -21 -38 -28 -45 -7 -7 -26 -40 -41 -73 -16 -33 -32 -62 -36 -65 -4 -3 -22
-48 -40 -100 -18 -52 -37 -100 -41 -105 -11 -15 -37 -135 -54 -247 -19 -127
-19 -399 0 -526 17 -112 43 -232 54 -247 4 -5 23 -53 41 -105 18 -52 36 -97
40 -100 3 -3 20 -32 36 -65 16 -33 35 -66 42 -73 7 -8 19 -27 27 -42 54 -104
276 -344 386 -417 13 -9 29 -21 34 -28 29 -33 270 -164 370 -200 44 -16 85
-32 90 -36 6 -5 69 -21 140 -36 122 -26 145 -28 370 -28 225 0 248 2 370 28
71 15 134 31 140 36 5 4 46 20 90 36 100 36 341 167 370 200 6 7 21 19 34 28
110 73 332 313 386 417 8 15 20 34 27 42 7 7 26 40 42 73 16 33 33 62 36 65 4
3 22 48 40 100 18 52 37 100 41 105 4 6 15 41 23 79 62 267 62 595 0 862 -8
38 -19 73 -23 79 -4 5 -23 53 -41 105 -18 52 -36 97 -40 100 -4 3 -20 32 -36
65 -15 33 -36 69 -46 79 -10 11 -18 25 -18 30 -1 6 -13 27 -28 47 -87 117
-116 151 -186 220 -58 59 -75 81 -69 95 3 11 10 21 14 24 19 14 39 108 39 187
0 78 -22 188 -41 203 -3 3 -18 29 -33 59 -29 58 -51 87 -155 197 -72 77 -87
110 -101 222 -8 60 2 220 16 277 5 21 3 25 -15 25 -72 0 -272 -155 -295 -227
-4 -13 -11 -23 -16 -23 -31 0 -54 -247 -31 -328 6 -20 6 -30 0 -27 -5 4 -9 12
-9 19 0 7 -9 21 -20 31 -66 59 -88 220 -49 346 12 41 28 77 33 81 6 4 7 8 2 8
-5 0 -4 6 2 13 16 19 42 178 42 251 -1 136 -49 286 -122 381 -43 56 -152 158
-207 193 -31 19 -58 38 -61 41 -3 4 -38 21 -79 39 -72 31 -131 41 -131 22z
m42 -1322 c-3 -13 -10 -26 -15 -30 -15 -9 -14 -171 1 -176 7 -2 12 -10 12 -18
0 -22 46 -105 79 -142 24 -28 42 -37 112 -52 91 -20 99 -18 119 30 10 24 97
100 115 100 2 0 -1 -13 -6 -30 -8 -21 -7 -50 1 -99 11 -65 14 -70 48 -87 20
-11 39 -22 42 -25 3 -4 37 -20 76 -36 40 -17 78 -35 85 -41 20 -17 164 -89
233 -118 33 -13 62 -28 65 -32 9 -12 71 -42 87 -42 7 0 16 -10 19 -23 3 -12
19 -31 35 -42 17 -11 30 -23 30 -26 0 -3 19 -26 43 -50 23 -25 51 -56 62 -69
37 -47 131 -195 144 -227 8 -18 17 -33 21 -33 4 0 10 -8 13 -17 13 -43 50
-141 63 -168 20 -43 42 -136 55 -235 6 -47 15 -93 20 -102 12 -23 12 -283 0
-306 -5 -9 -14 -56 -20 -103 -11 -89 -47 -240 -59 -249 -4 -3 -16 -30 -26 -60
-24 -68 -115 -240 -127 -240 -5 0 -9 -5 -9 -12 0 -6 -11 -26 -25 -44 -14 -18
-25 -36 -25 -39 0 -10 -46 -61 -151 -165 -115 -113 -138 -134 -204 -174 -27
-16 -52 -33 -55 -36 -12 -16 -206 -111 -258 -127 -31 -10 -59 -21 -62 -24 -8
-12 -120 -37 -215 -49 -49 -7 -98 -16 -107 -21 -23 -12 -283 -12 -306 0 -9 5
-57 14 -107 21 -95 12 -207 37 -215 49 -3 3 -31 14 -62 24 -52 16 -246 111
-258 127 -3 3 -27 20 -55 36 -66 40 -89 61 -204 174 -105 104 -151 155 -151
165 0 3 -11 21 -25 39 -14 18 -25 38 -25 44 0 7 -4 12 -9 12 -12 0 -103 172
-127 240 -10 30 -22 57 -26 60 -12 9 -48 160 -59 249 -6 47 -15 94 -20 103
-13 25 -12 308 1 308 6 0 10 15 10 34 0 66 47 281 68 310 4 6 14 29 21 51 16
53 44 119 52 125 3 3 18 28 32 55 25 49 94 157 132 205 48 59 203 207 238 225
20 11 37 23 37 27 0 3 26 21 57 39 31 18 64 39 72 46 19 17 109 75 171 111 25
15 50 30 55 35 6 5 37 23 70 40 52 28 60 36 63 64 3 32 4 32 27 17 21 -14 28
-13 77 1 29 9 59 19 67 21 8 3 10 11 6 22 -15 39 -17 116 -5 168 7 30 16 54
20 54 4 0 15 16 24 35 9 19 33 47 54 62 20 15 39 31 42 34 4 5 41 28 47 29 0
0 -1 -10 -5 -22z"/>
<path d="M1587 2590 c-97 -38 -181 -123 -218 -222 -18 -44 -20 -71 -17 -183 3
-119 5 -135 31 -187 36 -74 101 -139 175 -175 l57 -28 905 0 905 0 57 28 c74
36 139 101 175 175 27 55 28 63 28 202 0 138 -1 148 -27 200 -35 71 -107 143
-178 178 l-55 27 -895 2 c-856 2 -897 1 -943 -17z m1858 -70 c64 -31 124 -92
156 -155 21 -44 24 -63 24 -165 0 -97 -3 -122 -22 -162 -27 -60 -95 -127 -158
-159 l-50 -24 -875 0 -875 0 -50 24 c-64 32 -131 99 -158 159 -25 58 -35 200
-18 269 16 65 71 145 123 181 94 64 47 61 993 59 l860 -2 50 -25z"/>
<path d="M1742 2532 c-50 -8 -53 -29 -55 -330 -2 -263 -1 -281 17 -301 24 -26
87 -29 107 -5 9 11 16 52 19 108 l5 91 47 -94 c60 -118 63 -121 109 -121 41 0
69 26 69 66 0 11 -29 82 -65 157 l-65 137 59 94 c69 111 76 128 60 158 -16 31
-28 38 -64 38 -41 0 -45 -4 -104 -95 l-51 -80 0 71 c0 55 -4 74 -17 86 -23 19
-42 25 -71 20z"/>
<path d="M2721 2526 c-39 -22 -111 -224 -165 -469 -21 -95 -24 -122 -15 -140
16 -30 28 -37 65 -37 48 0 61 20 88 143 6 25 10 27 56 27 54 0 54 0 66 -84 8
-59 32 -86 77 -86 55 0 71 27 63 102 -8 82 -58 324 -86 417 -32 109 -91 160
-149 127z"/>
<path d="M2217 2509 c-80 -42 -111 -129 -110 -309 0 -135 10 -188 45 -240 42
-61 71 -75 153 -75 70 0 76 2 108 33 38 37 57 88 57 151 0 52 -27 81 -73 81
-43 0 -67 -26 -67 -71 0 -20 -6 -44 -14 -54 -12 -16 -16 -17 -30 -6 -25 21
-36 78 -35 191 0 122 14 174 46 178 17 3 24 -3 29 -25 11 -44 33 -63 75 -63
43 0 69 27 69 70 0 40 -42 113 -79 137 -44 29 -120 30 -174 2z"/>
<path d="M3084 2523 c-26 -18 -35 -62 -45 -215 -13 -200 -5 -385 18 -410 14
-16 34 -18 147 -18 72 0 136 4 142 8 21 13 34 52 28 77 -10 41 -40 55 -121 55
l-73 0 0 163 c0 89 5 191 10 227 8 57 7 68 -9 90 -18 25 -74 38 -97 23z"/>
<path d="M1895 1746 c-63 -28 -105 -94 -105 -166 0 -157 180 -238 294 -132
118 111 39 313 -122 312 -20 -1 -50 -7 -67 -14z"/>
<path d="M2465 1746 c-63 -28 -105 -94 -105 -166 0 -157 180 -238 294 -132
118 111 39 313 -122 312 -20 -1 -50 -7 -67 -14z"/>
<path d="M3005 1746 c-63 -28 -105 -94 -105 -166 0 -157 180 -238 294 -132
118 111 39 313 -122 312 -20 -1 -50 -7 -67 -14z"/>
<path d="M1895 1266 c-63 -28 -105 -94 -105 -166 0 -157 180 -238 294 -132
118 111 39 313 -122 312 -20 -1 -50 -7 -67 -14z"/>
<path d="M2465 1266 c-63 -28 -105 -94 -105 -166 0 -157 180 -238 294 -132
118 111 39 313 -122 312 -20 -1 -50 -7 -67 -14z"/>
<path d="M3005 1266 c-63 -28 -105 -94 -105 -166 0 -157 180 -238 294 -132
118 111 39 313 -122 312 -20 -1 -50 -7 -67 -14z"/>
<path d="M1895 756 c-63 -28 -105 -94 -105 -166 0 -157 180 -238 294 -132 118
111 39 313 -122 312 -20 -1 -50 -7 -67 -14z"/>
<path d="M2465 756 c-63 -28 -105 -94 -105 -166 0 -157 180 -238 294 -132 118
111 39 313 -122 312 -20 -1 -50 -7 -67 -14z"/>
<path d="M3005 756 c-63 -28 -105 -94 -105 -166 0 -157 180 -238 294 -132 118
111 39 313 -122 312 -20 -1 -50 -7 -67 -14z"/>
</g>
</svg>
