<?xml version="1.0" standalone="no"?>
<!DOCTYPE svg PUBLIC "-//W3C//DTD SVG 20010904//EN"
 "http://www.w3.org/TR/2001/REC-SVG-20010904/DTD/svg10.dtd">
<svg version="1.0" xmlns="http://www.w3.org/2000/svg"
 width="500.000000pt" height="500.000000pt" viewBox="0 0 500.000000 500.000000"
 preserveAspectRatio="xMidYMid meet">
<metadata>
Created by potrace 1.16, written by Peter Selinger 2001-2019
</metadata>
<g transform="translate(0.000000,500.000000) scale(0.100000,-0.100000)"
fill="#000000" stroke="none">
<path d="M3861 4897 c-43 -22 -61 -58 -70 -140 -5 -43 -11 -80 -12 -81 -2 -2
-19 -8 -38 -15 -33 -11 -37 -9 -81 28 -70 59 -111 81 -153 81 -53 0 -82 -18
-154 -92 -95 -100 -95 -151 -2 -265 l51 -63 -15 -37 -15 -38 -99 -11 c-71 -7
-110 -17 -135 -32 -60 -37 -68 -58 -68 -177 l0 -105 39 -39 c39 -39 100 -61
170 -61 62 0 86 -11 103 -48 l17 -35 -38 -46 c-111 -132 -108 -196 10 -305
102 -95 155 -97 264 -11 38 30 72 55 77 55 5 0 22 -7 38 -15 30 -16 33 -22 45
-135 4 -30 15 -69 26 -86 34 -56 57 -64 178 -64 104 0 111 1 142 27 42 35 56
73 65 165 7 76 7 76 44 93 l38 17 64 -51 c115 -93 166 -93 266 2 76 73 92 101
92 159 0 47 -9 64 -77 144 l-44 52 18 36 c18 38 23 40 107 51 35 5 57 15 78
35 l28 28 0 140 c0 133 -1 140 -24 165 -27 29 -42 34 -129 45 -56 7 -59 9 -71
43 -13 37 -12 38 36 94 102 120 105 171 14 272 -61 67 -107 95 -156 95 -47 -1
-67 -11 -145 -72 l-60 -47 -36 16 c-36 15 -37 17 -44 86 -13 132 -44 155 -207
155 -70 0 -122 -5 -137 -13z m227 -84 c5 -10 13 -57 17 -105 8 -99 10 -102 99
-136 103 -40 97 -41 188 32 46 36 90 66 98 66 19 0 120 -100 120 -120 0 -8
-29 -51 -65 -95 -51 -62 -65 -86 -61 -105 5 -30 55 -151 67 -165 5 -5 48 -14
97 -20 l87 -10 3 -97 3 -97 -80 -7 c-44 -3 -89 -12 -102 -18 -13 -7 -31 -36
-46 -76 -42 -110 -42 -106 32 -199 52 -64 66 -87 61 -105 -8 -31 -90 -106
-117 -106 -11 0 -53 26 -92 58 -40 32 -78 62 -85 66 -15 9 -159 -48 -183 -72
-12 -12 -20 -48 -26 -124 -6 -59 -16 -114 -23 -123 -17 -21 -142 -21 -163 0
-10 9 -18 46 -22 102 -11 141 -12 144 -110 187 -98 42 -90 44 -190 -39 -37
-30 -77 -55 -88 -55 -28 0 -117 88 -117 116 0 12 29 57 65 100 35 44 65 85 65
92 0 7 -11 35 -25 62 -14 27 -25 56 -25 64 0 7 -8 23 -17 35 -15 19 -36 24
-145 35 -70 7 -134 19 -143 26 -11 9 -15 31 -15 81 0 84 3 87 143 101 145 14
147 14 191 113 23 50 35 89 30 97 -4 7 -34 45 -66 85 -35 43 -58 81 -58 96 0
27 88 117 115 117 9 0 53 -30 98 -66 64 -52 86 -65 107 -61 37 7 140 53 157
70 10 9 19 50 25 108 6 52 15 97 22 101 6 4 46 8 88 8 64 0 79 -3 86 -17z"/>
<path d="M3910 4381 c-164 -50 -270 -218 -240 -379 49 -264 369 -367 559 -180
64 64 93 128 99 218 3 61 0 86 -19 135 -30 81 -112 164 -192 193 -59 22 -156
28 -207 13z m145 -102 c86 -24 147 -88 165 -174 47 -225 -233 -369 -389 -200
-97 105 -76 271 45 346 60 37 115 46 179 28z"/>
<path d="M1770 3721 c-82 -25 -148 -81 -176 -148 -8 -18 -22 -104 -31 -191
l-18 -159 -83 -27 -83 -27 -127 106 c-161 134 -192 150 -297 150 -113 0 -147
-20 -303 -179 -149 -152 -168 -188 -160 -305 6 -84 27 -125 131 -252 45 -56
90 -112 100 -125 18 -24 18 -25 -15 -108 l-33 -83 -160 -12 c-88 -7 -182 -17
-210 -23 -108 -23 -209 -98 -253 -189 -20 -42 -22 -60 -22 -226 0 -173 1 -182
25 -229 33 -64 95 -120 171 -156 53 -25 85 -31 225 -44 90 -9 173 -17 184 -19
14 -3 32 -29 58 -80 20 -41 37 -79 37 -84 0 -5 -43 -62 -95 -127 -146 -182
-174 -255 -140 -369 23 -79 54 -122 179 -243 119 -116 178 -150 266 -153 113
-4 140 8 311 147 l129 105 83 -33 83 -33 16 -170 c10 -93 25 -192 34 -218 22
-65 100 -149 165 -176 48 -21 63 -22 253 -19 l201 3 44 29 c79 51 127 115 150
201 5 22 15 101 22 175 6 74 15 143 18 153 4 10 41 33 85 52 l78 34 130 -104
c148 -121 163 -129 241 -144 70 -13 142 0 202 35 62 36 271 253 294 305 33 74
36 129 12 206 -17 58 -36 88 -130 204 l-110 136 34 84 c30 75 37 84 62 87 103
10 250 35 273 47 46 24 87 75 105 130 14 45 16 90 13 292 -3 222 -4 241 -25
279 -31 59 -83 100 -140 112 -26 6 -103 16 -170 23 l-122 12 -12 51 c-6 28
-17 65 -25 83 l-13 32 104 122 c142 167 160 202 160 304 -1 113 -23 153 -167
298 -130 132 -190 168 -277 169 -108 0 -148 -19 -302 -143 -63 -50 -119 -96
-126 -101 -8 -7 -38 1 -92 23 -88 36 -86 33 -96 139 -19 200 -38 255 -107 314
-66 57 -113 66 -337 65 -108 0 -207 -4 -221 -8z m413 -183 c20 -21 25 -43 40
-208 24 -243 26 -248 147 -286 30 -9 98 -37 150 -61 68 -31 102 -42 121 -38
15 3 91 59 170 123 184 150 187 152 228 152 30 0 47 -13 142 -107 105 -103
109 -109 109 -149 0 -36 -7 -52 -48 -101 -195 -236 -222 -274 -222 -308 0 -20
15 -64 34 -102 19 -38 47 -104 62 -148 15 -44 32 -86 37 -93 22 -28 67 -41
207 -56 80 -9 160 -19 178 -22 l32 -6 0 -204 c0 -203 0 -204 -22 -208 -39 -7
-301 -36 -330 -36 -46 0 -77 -38 -107 -130 -15 -47 -44 -122 -65 -167 -24 -55
-35 -90 -31 -106 4 -13 67 -98 141 -188 176 -215 175 -203 27 -351 -146 -146
-141 -146 -318 -1 -231 189 -219 185 -348 125 -45 -22 -113 -49 -151 -62 -74
-24 -112 -55 -120 -98 -3 -15 -12 -110 -21 -212 -9 -102 -23 -204 -31 -228
-25 -67 -38 -72 -202 -72 -142 0 -143 0 -167 26 -33 36 -39 66 -61 299 -18
199 -18 200 -49 231 -19 20 -62 42 -120 64 -49 18 -116 46 -147 61 -97 49 -90
52 -311 -128 -127 -104 -142 -113 -180 -113 -39 0 -46 5 -149 108 -151 151
-154 128 56 386 57 71 107 140 111 153 4 17 -7 51 -34 111 -22 48 -53 123 -68
166 -42 118 -36 115 -326 142 -256 23 -312 37 -337 83 -5 11 -10 78 -10 150 0
145 5 157 74 186 28 12 184 32 396 50 140 13 158 28 220 190 17 44 42 99 56
122 46 79 39 97 -93 260 -144 176 -153 189 -153 233 0 30 12 46 108 142 93 93
112 108 141 108 45 0 57 -8 216 -138 77 -63 155 -121 173 -129 31 -13 38 -12
130 30 53 24 127 54 164 66 106 35 111 44 132 257 10 98 22 190 25 204 13 43
43 50 214 50 151 0 159 -1 180 -22z"/>
<path d="M1850 2609 c-217 -42 -417 -213 -504 -432 -39 -97 -49 -167 -43 -292
9 -190 67 -317 206 -455 95 -95 201 -156 321 -187 97 -24 265 -21 355 7 205
65 350 188 440 375 52 108 69 180 69 300 0 121 -17 192 -71 305 -39 82 -58
107 -137 185 -150 148 -290 206 -490 204 -56 -1 -121 -5 -146 -10z m323 -228
c132 -51 241 -168 287 -306 19 -56 22 -83 18 -173 -3 -98 -6 -113 -39 -182
-99 -206 -317 -320 -530 -276 -320 67 -485 387 -355 687 17 40 77 123 110 152
46 40 134 92 186 109 79 26 242 20 323 -11z"/>
</g>
</svg>
