<?xml version="1.0" standalone="no"?>
<!DOCTYPE svg PUBLIC "-//W3C//DTD SVG 20010904//EN"
 "http://www.w3.org/TR/2001/REC-SVG-20010904/DTD/svg10.dtd">
<svg version="1.0" xmlns="http://www.w3.org/2000/svg"
 width="500.000000pt" height="500.000000pt" viewBox="0 0 500.000000 500.000000"
 preserveAspectRatio="xMidYMid meet">
<metadata>
Created by potrace 1.16, written by Peter Selinger 2001-2019
</metadata>
<g transform="translate(0.000000,500.000000) scale(0.100000,-0.100000)"
fill="#000000" stroke="none">
<path d="M1521 4903 c3 -20 -2 -24 -16 -13 -12 10 -18 10 -30 0 -11 -10 -18
-10 -29 -1 -10 8 -15 8 -18 1 -2 -6 -27 -13 -56 -17 -28 -3 -52 -10 -52 -14 0
-5 -7 -9 -15 -9 -8 0 -15 -5 -15 -10 0 -6 -6 -10 -13 -8 -17 4 -87 -32 -108
-55 -10 -10 -21 -16 -25 -15 -11 3 -214 -200 -214 -214 0 -5 -8 -18 -19 -29
-10 -11 -27 -37 -37 -59 -10 -22 -22 -40 -26 -40 -5 0 -8 -11 -8 -25 0 -14 -4
-25 -9 -25 -5 0 -12 -19 -16 -42 -4 -24 -12 -49 -19 -57 -15 -19 -15 -219 1
-229 6 -4 14 -24 18 -45 4 -20 11 -37 16 -37 5 0 9 -7 9 -15 0 -8 4 -15 10
-15 5 0 24 -16 43 -35 19 -19 41 -35 50 -35 10 0 14 -5 11 -15 -4 -9 0 -15 9
-15 21 0 31 17 15 23 -10 4 -10 6 0 6 7 1 122 112 257 247 174 174 253 247
273 250 15 3 47 11 72 19 121 37 418 48 540 20 14 -4 36 -8 50 -10 22 -3 35
-6 85 -19 6 -1 19 -5 30 -9 11 -3 31 -8 45 -11 54 -11 67 -15 124 -40 69 -30
319 -171 338 -189 7 -7 27 -22 45 -32 18 -10 30 -22 28 -26 -3 -4 12 -20 32
-35 43 -33 113 -99 113 -107 0 -3 18 -23 40 -45 22 -21 38 -41 36 -43 -3 -2
13 -25 34 -49 22 -25 40 -50 40 -56 0 -5 9 -20 21 -33 12 -12 22 -28 23 -35 1
-7 9 -24 17 -37 9 -13 26 -46 38 -74 12 -27 29 -63 36 -80 21 -43 73 -227 78
-272 2 -21 8 -46 12 -55 6 -16 10 -260 5 -353 -1 -22 -8 -67 -15 -99 -8 -33
-12 -63 -9 -67 2 -5 -3 -25 -11 -46 -18 -42 -24 -63 -32 -108 -3 -16 -10 -35
-15 -41 -5 -7 -10 -21 -13 -32 -10 -56 -157 -317 -215 -383 -89 -102 -128
-145 -141 -157 -9 -8 -34 -31 -56 -52 -22 -20 -62 -52 -89 -70 -27 -19 -55
-40 -62 -47 -7 -7 -19 -13 -26 -13 -7 0 -26 -12 -42 -27 -16 -15 -31 -27 -34
-27 -3 0 -46 -19 -96 -43 -50 -23 -99 -44 -110 -46 -10 -1 -25 -6 -31 -10 -7
-5 -21 -10 -30 -12 -10 -3 -43 -12 -73 -20 -30 -8 -64 -17 -75 -20 -11 -2 -31
-6 -45 -9 -93 -21 -392 -26 -424 -8 -5 3 -27 6 -50 7 -23 2 -70 10 -106 20
-36 9 -72 17 -80 17 -8 0 -20 5 -26 10 -7 5 -20 11 -30 13 -44 10 -119 39
-122 47 -2 4 -8 6 -13 2 -5 -3 -9 -1 -9 3 0 9 -69 39 -82 35 -5 -1 -8 3 -8 9
0 5 -4 7 -10 4 -5 -3 -10 -1 -10 6 0 7 -3 10 -6 6 -7 -6 -64 19 -64 29 0 3 5
2 12 -2 6 -4 8 -3 4 4 -3 6 -32 25 -64 43 -31 18 -84 54 -117 79 -64 50 -204
187 -197 194 2 3 -14 22 -36 43 -21 21 -40 43 -40 48 -1 6 -13 25 -27 43 -15
18 -28 40 -29 47 -1 8 -9 22 -17 32 -17 20 -62 111 -57 115 1 2 -7 19 -18 38
-11 19 -29 62 -40 95 -10 33 -23 63 -28 67 -22 15 -28 -8 -22 -76 10 -105 17
-168 21 -196 1 -14 6 -50 10 -80 6 -51 25 -130 45 -190 4 -14 13 -45 20 -70 7
-25 16 -54 21 -65 5 -11 20 -49 33 -85 40 -108 121 -267 155 -306 10 -12 17
-25 14 -28 -3 -3 11 -25 31 -49 20 -24 36 -48 36 -54 0 -5 13 -22 30 -38 16
-16 30 -34 30 -40 0 -7 24 -35 54 -63 29 -28 51 -53 48 -56 -3 -3 8 -16 23
-28 16 -12 57 -49 91 -83 35 -33 73 -68 86 -77 13 -10 44 -33 70 -52 25 -19
60 -42 76 -50 17 -9 32 -19 34 -24 1 -5 65 -43 140 -86 l137 -77 -34 -45 c-40
-52 -49 -90 -43 -179 5 -76 37 -131 107 -180 40 -28 48 -30 136 -30 88 0 96 2
136 30 72 51 103 104 107 185 2 39 8 67 13 64 5 -3 21 -7 34 -10 34 -6 65 -12
95 -19 14 -3 50 -7 80 -10 30 -2 87 -7 125 -11 71 -8 175 -7 300 2 121 8 141
11 151 16 5 4 32 9 59 12 55 8 90 14 90 16 0 1 14 3 31 5 l32 3 4 -68 c4 -81
35 -135 107 -185 40 -28 48 -30 136 -30 88 0 96 2 136 30 70 49 102 104 107
180 6 90 -3 127 -45 182 -31 41 -34 59 -7 53 4 -1 10 2 13 7 3 4 33 21 66 38
57 28 175 101 185 115 3 4 15 10 28 14 12 4 22 11 22 15 0 4 21 23 48 42 26
18 59 46 75 62 15 15 27 25 27 21 0 -5 197 195 235 239 9 10 21 29 27 42 6 13
15 22 19 19 5 -3 9 -1 9 5 0 5 6 16 13 23 42 45 190 294 217 365 11 30 27 68
36 85 9 16 17 37 19 46 2 10 16 49 30 87 31 80 45 129 50 165 1 14 3 25 4 25
3 0 9 27 15 60 2 11 7 36 11 55 34 175 39 513 11 680 -28 167 -34 198 -45 225
-7 17 -25 86 -36 135 -2 8 -13 41 -25 72 -12 32 -20 59 -18 60 1 2 -7 19 -20
39 -12 20 -19 39 -15 42 3 4 -6 22 -21 42 -15 19 -24 35 -21 35 8 0 -52 109
-71 131 -8 8 -14 20 -14 26 0 6 -13 27 -30 48 -16 21 -30 43 -30 50 0 6 -13
24 -30 40 -16 15 -28 31 -27 36 1 4 -19 30 -46 58 -26 28 -44 51 -40 51 5 0
-16 22 -44 48 -47 43 -57 62 -32 62 4 0 44 -36 89 -80 71 -70 86 -80 118 -80
29 0 43 8 79 45 24 25 43 50 43 56 0 5 4 7 10 4 6 -4 10 5 10 19 0 14 4 26 8
26 5 0 9 13 10 29 0 17 5 38 10 48 12 22 12 163 0 163 -5 0 -8 6 -7 13 1 6 -3
25 -9 40 -7 16 -12 35 -12 43 0 8 -3 14 -7 14 -12 0 -32 49 -21 52 5 2 0 13
-12 25 -11 12 -20 26 -20 31 0 5 -11 19 -24 31 -14 13 -22 29 -19 37 3 8 1 14
-5 14 -6 0 -41 30 -80 68 -102 99 -140 132 -152 132 -5 0 -10 3 -10 8 0 4 -20
16 -45 27 -25 11 -45 23 -45 27 0 5 -9 8 -20 8 -11 0 -20 4 -20 9 0 5 -15 11
-32 14 -74 13 -98 20 -98 27 0 13 -172 0 -232 -18 -32 -9 -58 -20 -58 -24 0
-5 -4 -8 -10 -8 -15 0 -100 -82 -100 -97 0 -7 -4 -13 -10 -13 -18 0 -11 -60 8
-67 19 -8 25 -12 71 -53 16 -15 27 -30 24 -34 -3 -3 -2 -6 4 -6 14 0 86 -66
259 -235 79 -77 177 -171 219 -210 41 -38 75 -73 75 -77 0 -16 -18 -7 -52 25
-61 58 -110 98 -137 112 -14 7 -25 17 -24 22 2 4 -21 24 -50 45 -59 41 -420
248 -434 248 -4 0 -25 9 -46 20 -20 11 -37 17 -37 14 0 -4 -7 -1 -15 6 -9 7
-18 10 -22 7 -3 -3 -18 0 -34 9 -16 8 -29 12 -29 8 0 -3 -11 1 -25 10 -14 9
-25 14 -25 11 0 -3 -10 0 -22 6 -12 6 -33 13 -47 15 -14 1 -36 5 -48 8 -81 21
-98 24 -143 31 -20 3 -47 8 -60 11 -23 4 -172 14 -245 16 -72 2 -257 -12 -335
-26 -47 -8 -102 -17 -124 -20 -21 -4 -42 -9 -47 -12 -5 -3 -20 -7 -33 -10 -13
-2 -55 -14 -92 -26 -38 -12 -71 -22 -74 -23 -3 0 -11 -4 -17 -8 -7 -5 -13 -5
-13 -1 0 3 -11 -1 -25 -10 -14 -9 -25 -14 -25 -11 0 3 -10 0 -22 -7 -13 -6
-29 -13 -36 -14 -7 -1 -50 -20 -95 -42 -45 -22 -90 -42 -100 -46 -10 -3 34 46
97 109 63 63 119 115 124 115 5 0 10 25 11 57 2 54 1 58 -36 89 -21 19 -42 34
-46 34 -5 0 -5 5 -2 10 4 6 -5 10 -20 10 -15 0 -24 4 -20 10 6 10 -7 14 -32
11 -7 -1 -13 3 -13 9 0 6 -10 8 -24 4 -16 -4 -34 0 -48 10 -24 17 -39 21 -37
9z"/>
<path d="M2592 3618 c-9 -9 -12 -108 -12 -384 0 -364 0 -373 -20 -379 -69 -22
-120 -105 -120 -195 0 -91 38 -154 117 -194 41 -21 144 -21 183 -1 l30 15 160
-120 c120 -91 167 -120 189 -120 36 0 61 31 61 75 -1 27 -16 41 -160 149
l-160 118 0 69 c0 104 -43 173 -129 208 l-31 13 0 367 c0 272 -3 370 -12 379
-7 7 -28 12 -48 12 -20 0 -41 -5 -48 -12z"/>
</g>
</svg>
