<?xml version="1.0" standalone="no"?>
<!DOCTYPE svg PUBLIC "-//W3C//DTD SVG 20010904//EN"
 "http://www.w3.org/TR/2001/REC-SVG-20010904/DTD/svg10.dtd">
<svg version="1.0" xmlns="http://www.w3.org/2000/svg"
 width="500.000000pt" height="500.000000pt" viewBox="0 0 500.000000 500.000000"
 preserveAspectRatio="xMidYMid meet">
<metadata>
Created by potrace 1.16, written by Peter Selinger 2001-2019
</metadata>
<g transform="translate(0.000000,500.000000) scale(0.100000,-0.100000)"
fill="#000000" stroke="none">
<path d="M1988 4523 c-341 -471 -604 -955 -739 -1364 -78 -238 -93 -322 -94
-544 0 -217 9 -267 75 -401 103 -210 340 -367 640 -424 36 -7 69 -16 73 -20 4
-4 1 -58 -9 -121 -23 -158 -15 -422 15 -529 104 -361 388 -564 874 -626 100
-12 180 -15 341 -11 185 4 223 8 311 31 149 38 274 104 354 185 72 73 129 173
157 276 22 80 30 328 14 453 -7 53 -27 157 -45 231 -104 424 -303 879 -736
1689 -60 111 -138 261 -174 332 -36 72 -69 130 -74 130 -5 0 -65 -83 -133
-185 -67 -101 -125 -184 -128 -184 -3 0 -52 97 -110 216 -58 119 -174 345
-258 502 -85 157 -176 330 -203 384 -27 53 -53 97 -57 97 -5 0 -47 -53 -94
-117z"/>
</g>
</svg>
